<mxfile host="app.diagrams.net" modified="2020-08-03T16:22:02.326Z" agent="5.0 (Macintosh; Intel Mac OS X 10_15_6) AppleWebKit/537.36 (KHTML, like Gecko) Chrome/84.0.4147.89 Safari/537.36" etag="IhqBEJ_q6uKWcY6BiMln" version="13.5.3" type="github">
  <diagram id="zEdRtBVnIhjPwqwlMCDI" name="Page-1">
    <mxGraphModel dx="1069" dy="668" grid="1" gridSize="10" guides="1" tooltips="1" connect="1" arrows="1" fold="1" page="1" pageScale="1" pageWidth="827" pageHeight="1169" math="0" shadow="0">
      <root>
        <mxCell id="0" />
        <mxCell id="1" parent="0" />
        <mxCell id="A1JcVzxI_KPBM_R2ZojH-2" value="AEM" style="rounded=0;whiteSpace=wrap;html=1;fillColor=#dae8fc;strokeColor=#6c8ebf;" vertex="1" parent="1">
          <mxGeometry x="40" y="30" width="90" height="60" as="geometry" />
        </mxCell>
        <mxCell id="A1JcVzxI_KPBM_R2ZojH-3" value="New Services" style="rounded=0;whiteSpace=wrap;html=1;fillColor=#d5e8d4;strokeColor=#82b366;" vertex="1" parent="1">
          <mxGeometry x="140" y="30" width="150" height="60" as="geometry" />
        </mxCell>
        <mxCell id="A1JcVzxI_KPBM_R2ZojH-4" value="Cloud Infrastructure" style="rounded=0;whiteSpace=wrap;html=1;fillColor=#f5f5f5;strokeColor=#666666;fontColor=#333333;" vertex="1" parent="1">
          <mxGeometry x="40" y="100" width="250" height="60" as="geometry" />
        </mxCell>
      </root>
    </mxGraphModel>
  </diagram>
</mxfile>
